<?xml version="1.0" encoding="UTF-8" standalone="no"?>
<!DOCTYPE svg PUBLIC "-//W3C//DTD SVG 1.1//EN"
 "http://www.w3.org/Graphics/SVG/1.1/DTD/svg11.dtd">
<!-- Generated by graphviz version 2.38.0 (20140413.2041)
 -->
<!-- Title: Tree Pages: 1 -->
<svg width="771pt" height="671pt"
 viewBox="0.00 0.00 770.50 671.00" xmlns="http://www.w3.org/2000/svg" xmlns:xlink="http://www.w3.org/1999/xlink">
<g id="graph0" class="graph" transform="scale(1 1) rotate(0) translate(4 667)">
<title>Tree</title>
<polygon fill="white" stroke="none" points="-4,4 -4,-667 766.5,-667 766.5,4 -4,4"/>
<!-- 0 -->
<g id="node1" class="node"><title>0</title>
<path fill="#ffffff" stroke="black" d="M560,-663C560,-663 438,-663 438,-663 432,-663 426,-657 426,-651 426,-651 426,-592 426,-592 426,-586 432,-580 438,-580 438,-580 560,-580 560,-580 566,-580 572,-586 572,-592 572,-592 572,-651 572,-651 572,-657 566,-663 560,-663"/>
<text text-anchor="start" x="455" y="-647.8" font-family="Helvetica,sans-Serif" font-size="14.00">x2_True ≤ 0.5</text>
<text text-anchor="start" x="470" y="-632.8" font-family="Helvetica,sans-Serif" font-size="14.00">gini = 0.5</text>
<text text-anchor="start" x="447.5" y="-617.8" font-family="Helvetica,sans-Serif" font-size="14.00">samples = 3306</text>
<text text-anchor="start" x="434" y="-602.8" font-family="Helvetica,sans-Serif" font-size="14.00">value = [1653, 1653]</text>
<text text-anchor="start" x="453.5" y="-587.8" font-family="Helvetica,sans-Serif" font-size="14.00">class = Reject</text>
</g>
<!-- 1 -->
<g id="node2" class="node"><title>1</title>
<path fill="#feffff" stroke="black" d="M488,-544C488,-544 366,-544 366,-544 360,-544 354,-538 354,-532 354,-532 354,-473 354,-473 354,-467 360,-461 366,-461 366,-461 488,-461 488,-461 494,-461 500,-467 500,-473 500,-473 500,-532 500,-532 500,-538 494,-544 488,-544"/>
<text text-anchor="start" x="387.5" y="-528.8" font-family="Helvetica,sans-Serif" font-size="14.00">x0_UK ≤ 0.5</text>
<text text-anchor="start" x="398" y="-513.8" font-family="Helvetica,sans-Serif" font-size="14.00">gini = 0.5</text>
<text text-anchor="start" x="375.5" y="-498.8" font-family="Helvetica,sans-Serif" font-size="14.00">samples = 3282</text>
<text text-anchor="start" x="362" y="-483.8" font-family="Helvetica,sans-Serif" font-size="14.00">value = [1638, 1644]</text>
<text text-anchor="start" x="374.5" y="-468.8" font-family="Helvetica,sans-Serif" font-size="14.00">class = Success</text>
</g>
<!-- 0&#45;&gt;1 -->
<g id="edge1" class="edge"><title>0&#45;&gt;1</title>
<path fill="none" stroke="black" d="M474.02,-579.907C468.603,-571.105 462.817,-561.703 457.223,-552.612"/>
<polygon fill="black" stroke="black" points="460.158,-550.703 451.936,-544.021 454.196,-554.372 460.158,-550.703"/>
<text text-anchor="middle" x="446.145" y="-564.641" font-family="Helvetica,sans-Serif" font-size="14.00">True</text>
</g>
<!-- 10 -->
<g id="node11" class="node"><title>10</title>
<path fill="#f5cdb0" stroke="black" d="M613.5,-544C613.5,-544 530.5,-544 530.5,-544 524.5,-544 518.5,-538 518.5,-532 518.5,-532 518.5,-473 518.5,-473 518.5,-467 524.5,-461 530.5,-461 530.5,-461 613.5,-461 613.5,-461 619.5,-461 625.5,-467 625.5,-473 625.5,-473 625.5,-532 625.5,-532 625.5,-538 619.5,-544 613.5,-544"/>
<text text-anchor="start" x="532.5" y="-528.8" font-family="Helvetica,sans-Serif" font-size="14.00">x0_AE ≤ 0.5</text>
<text text-anchor="start" x="534.5" y="-513.8" font-family="Helvetica,sans-Serif" font-size="14.00">gini = 0.469</text>
<text text-anchor="start" x="528.5" y="-498.8" font-family="Helvetica,sans-Serif" font-size="14.00">samples = 24</text>
<text text-anchor="start" x="527.5" y="-483.8" font-family="Helvetica,sans-Serif" font-size="14.00">value = [15, 9]</text>
<text text-anchor="start" x="526.5" y="-468.8" font-family="Helvetica,sans-Serif" font-size="14.00">class = Reject</text>
</g>
<!-- 0&#45;&gt;10 -->
<g id="edge10" class="edge"><title>0&#45;&gt;10</title>
<path fill="none" stroke="black" d="M524.327,-579.907C529.819,-571.105 535.685,-561.703 541.357,-552.612"/>
<polygon fill="black" stroke="black" points="544.394,-554.358 546.718,-544.021 538.455,-550.652 544.394,-554.358"/>
<text text-anchor="middle" x="552.358" y="-564.676" font-family="Helvetica,sans-Serif" font-size="14.00">False</text>
</g>
<!-- 2 -->
<g id="node3" class="node"><title>2</title>
<path fill="#fffefd" stroke="black" d="M334,-425C334,-425 212,-425 212,-425 206,-425 200,-419 200,-413 200,-413 200,-354 200,-354 200,-348 206,-342 212,-342 212,-342 334,-342 334,-342 340,-342 346,-348 346,-354 346,-354 346,-413 346,-413 346,-419 340,-425 334,-425"/>
<text text-anchor="start" x="228.5" y="-409.8" font-family="Helvetica,sans-Serif" font-size="14.00">x1_EUR ≤ 0.5</text>
<text text-anchor="start" x="244" y="-394.8" font-family="Helvetica,sans-Serif" font-size="14.00">gini = 0.5</text>
<text text-anchor="start" x="221.5" y="-379.8" font-family="Helvetica,sans-Serif" font-size="14.00">samples = 2747</text>
<text text-anchor="start" x="208" y="-364.8" font-family="Helvetica,sans-Serif" font-size="14.00">value = [1380, 1367]</text>
<text text-anchor="start" x="227.5" y="-349.8" font-family="Helvetica,sans-Serif" font-size="14.00">class = Reject</text>
</g>
<!-- 1&#45;&gt;2 -->
<g id="edge2" class="edge"><title>1&#45;&gt;2</title>
<path fill="none" stroke="black" d="M373.57,-460.907C360.909,-451.288 347.306,-440.953 334.324,-431.09"/>
<polygon fill="black" stroke="black" points="336.415,-428.283 326.335,-425.021 332.18,-433.857 336.415,-428.283"/>
</g>
<!-- 9 -->
<g id="node10" class="node"><title>9</title>
<path fill="#f1f8fd" stroke="black" d="M482,-417.5C482,-417.5 376,-417.5 376,-417.5 370,-417.5 364,-411.5 364,-405.5 364,-405.5 364,-361.5 364,-361.5 364,-355.5 370,-349.5 376,-349.5 376,-349.5 482,-349.5 482,-349.5 488,-349.5 494,-355.5 494,-361.5 494,-361.5 494,-405.5 494,-405.5 494,-411.5 488,-417.5 482,-417.5"/>
<text text-anchor="start" x="391.5" y="-402.3" font-family="Helvetica,sans-Serif" font-size="14.00">gini = 0.499</text>
<text text-anchor="start" x="381.5" y="-387.3" font-family="Helvetica,sans-Serif" font-size="14.00">samples = 535</text>
<text text-anchor="start" x="372" y="-372.3" font-family="Helvetica,sans-Serif" font-size="14.00">value = [258, 277]</text>
<text text-anchor="start" x="376.5" y="-357.3" font-family="Helvetica,sans-Serif" font-size="14.00">class = Success</text>
</g>
<!-- 1&#45;&gt;9 -->
<g id="edge9" class="edge"><title>1&#45;&gt;9</title>
<path fill="none" stroke="black" d="M427.694,-460.907C427.877,-450.204 428.075,-438.615 428.26,-427.776"/>
<polygon fill="black" stroke="black" points="431.762,-427.725 428.433,-417.667 424.763,-427.606 431.762,-427.725"/>
</g>
<!-- 3 -->
<g id="node4" class="node"><title>3</title>
<path fill="#fffdfb" stroke="black" d="M274,-306C274,-306 152,-306 152,-306 146,-306 140,-300 140,-294 140,-294 140,-235 140,-235 140,-229 146,-223 152,-223 152,-223 274,-223 274,-223 280,-223 286,-229 286,-235 286,-235 286,-294 286,-294 286,-300 280,-306 274,-306"/>
<text text-anchor="start" x="173.5" y="-290.8" font-family="Helvetica,sans-Serif" font-size="14.00">x0_US ≤ 0.5</text>
<text text-anchor="start" x="184" y="-275.8" font-family="Helvetica,sans-Serif" font-size="14.00">gini = 0.5</text>
<text text-anchor="start" x="161.5" y="-260.8" font-family="Helvetica,sans-Serif" font-size="14.00">samples = 2225</text>
<text text-anchor="start" x="148" y="-245.8" font-family="Helvetica,sans-Serif" font-size="14.00">value = [1123, 1102]</text>
<text text-anchor="start" x="167.5" y="-230.8" font-family="Helvetica,sans-Serif" font-size="14.00">class = Reject</text>
</g>
<!-- 2&#45;&gt;3 -->
<g id="edge3" class="edge"><title>2&#45;&gt;3</title>
<path fill="none" stroke="black" d="M252.183,-341.907C247.762,-333.286 243.046,-324.09 238.474,-315.175"/>
<polygon fill="black" stroke="black" points="241.457,-313.322 233.78,-306.021 235.229,-316.516 241.457,-313.322"/>
</g>
<!-- 8 -->
<g id="node9" class="node"><title>8</title>
<path fill="#f9fcfe" stroke="black" d="M422,-298.5C422,-298.5 316,-298.5 316,-298.5 310,-298.5 304,-292.5 304,-286.5 304,-286.5 304,-242.5 304,-242.5 304,-236.5 310,-230.5 316,-230.5 316,-230.5 422,-230.5 422,-230.5 428,-230.5 434,-236.5 434,-242.5 434,-242.5 434,-286.5 434,-286.5 434,-292.5 428,-298.5 422,-298.5"/>
<text text-anchor="start" x="340" y="-283.3" font-family="Helvetica,sans-Serif" font-size="14.00">gini = 0.5</text>
<text text-anchor="start" x="321.5" y="-268.3" font-family="Helvetica,sans-Serif" font-size="14.00">samples = 522</text>
<text text-anchor="start" x="312" y="-253.3" font-family="Helvetica,sans-Serif" font-size="14.00">value = [257, 265]</text>
<text text-anchor="start" x="316.5" y="-238.3" font-family="Helvetica,sans-Serif" font-size="14.00">class = Success</text>
</g>
<!-- 2&#45;&gt;8 -->
<g id="edge8" class="edge"><title>2&#45;&gt;8</title>
<path fill="none" stroke="black" d="M306.307,-341.907C315.723,-330.432 325.974,-317.938 335.407,-306.442"/>
<polygon fill="black" stroke="black" points="338.149,-308.618 341.786,-298.667 332.737,-304.178 338.149,-308.618"/>
</g>
<!-- 4 -->
<g id="node5" class="node"><title>4</title>
<path fill="#fffefd" stroke="black" d="M192,-187C192,-187 86,-187 86,-187 80,-187 74,-181 74,-175 74,-175 74,-116 74,-116 74,-110 80,-104 86,-104 86,-104 192,-104 192,-104 198,-104 204,-110 204,-116 204,-116 204,-175 204,-175 204,-181 198,-187 192,-187"/>
<text text-anchor="start" x="99.5" y="-171.8" font-family="Helvetica,sans-Serif" font-size="14.00">x0_CA ≤ 0.5</text>
<text text-anchor="start" x="110" y="-156.8" font-family="Helvetica,sans-Serif" font-size="14.00">gini = 0.5</text>
<text text-anchor="start" x="87.5" y="-141.8" font-family="Helvetica,sans-Serif" font-size="14.00">samples = 1645</text>
<text text-anchor="start" x="82" y="-126.8" font-family="Helvetica,sans-Serif" font-size="14.00">value = [827, 818]</text>
<text text-anchor="start" x="93.5" y="-111.8" font-family="Helvetica,sans-Serif" font-size="14.00">class = Reject</text>
</g>
<!-- 3&#45;&gt;4 -->
<g id="edge4" class="edge"><title>3&#45;&gt;4</title>
<path fill="none" stroke="black" d="M187.326,-222.907C181.758,-214.105 175.812,-204.703 170.062,-195.612"/>
<polygon fill="black" stroke="black" points="172.932,-193.601 164.629,-187.021 167.016,-197.343 172.932,-193.601"/>
</g>
<!-- 7 -->
<g id="node8" class="node"><title>7</title>
<path fill="#fefaf7" stroke="black" d="M340,-179.5C340,-179.5 234,-179.5 234,-179.5 228,-179.5 222,-173.5 222,-167.5 222,-167.5 222,-123.5 222,-123.5 222,-117.5 228,-111.5 234,-111.5 234,-111.5 340,-111.5 340,-111.5 346,-111.5 352,-117.5 352,-123.5 352,-123.5 352,-167.5 352,-167.5 352,-173.5 346,-179.5 340,-179.5"/>
<text text-anchor="start" x="258" y="-164.3" font-family="Helvetica,sans-Serif" font-size="14.00">gini = 0.5</text>
<text text-anchor="start" x="239.5" y="-149.3" font-family="Helvetica,sans-Serif" font-size="14.00">samples = 580</text>
<text text-anchor="start" x="230" y="-134.3" font-family="Helvetica,sans-Serif" font-size="14.00">value = [296, 284]</text>
<text text-anchor="start" x="241.5" y="-119.3" font-family="Helvetica,sans-Serif" font-size="14.00">class = Reject</text>
</g>
<!-- 3&#45;&gt;7 -->
<g id="edge7" class="edge"><title>3&#45;&gt;7</title>
<path fill="none" stroke="black" d="M238.674,-222.907C245.723,-211.763 253.379,-199.658 260.474,-188.439"/>
<polygon fill="black" stroke="black" points="263.635,-189.989 266.023,-179.667 257.719,-186.248 263.635,-189.989"/>
</g>
<!-- 5 -->
<g id="node6" class="node"><title>5</title>
<path fill="#fffdfb" stroke="black" d="M118,-68C118,-68 12,-68 12,-68 6,-68 0,-62 0,-56 0,-56 0,-12 0,-12 0,-6 6,-0 12,-0 12,-0 118,-0 118,-0 124,-0 130,-6 130,-12 130,-12 130,-56 130,-56 130,-62 124,-68 118,-68"/>
<text text-anchor="start" x="36" y="-52.8" font-family="Helvetica,sans-Serif" font-size="14.00">gini = 0.5</text>
<text text-anchor="start" x="13.5" y="-37.8" font-family="Helvetica,sans-Serif" font-size="14.00">samples = 1094</text>
<text text-anchor="start" x="8" y="-22.8" font-family="Helvetica,sans-Serif" font-size="14.00">value = [552, 542]</text>
<text text-anchor="start" x="19.5" y="-7.8" font-family="Helvetica,sans-Serif" font-size="14.00">class = Reject</text>
</g>
<!-- 4&#45;&gt;5 -->
<g id="edge5" class="edge"><title>4&#45;&gt;5</title>
<path fill="none" stroke="black" d="M111.445,-103.726C105.466,-94.879 99.1346,-85.51 93.1337,-76.6303"/>
<polygon fill="black" stroke="black" points="96.0031,-74.6253 87.5038,-68.2996 90.2033,-78.5448 96.0031,-74.6253"/>
</g>
<!-- 6 -->
<g id="node7" class="node"><title>6</title>
<path fill="#feffff" stroke="black" d="M266,-68C266,-68 160,-68 160,-68 154,-68 148,-62 148,-56 148,-56 148,-12 148,-12 148,-6 154,-0 160,-0 160,-0 266,-0 266,-0 272,-0 278,-6 278,-12 278,-12 278,-56 278,-56 278,-62 272,-68 266,-68"/>
<text text-anchor="start" x="184" y="-52.8" font-family="Helvetica,sans-Serif" font-size="14.00">gini = 0.5</text>
<text text-anchor="start" x="165.5" y="-37.8" font-family="Helvetica,sans-Serif" font-size="14.00">samples = 551</text>
<text text-anchor="start" x="156" y="-22.8" font-family="Helvetica,sans-Serif" font-size="14.00">value = [275, 276]</text>
<text text-anchor="start" x="160.5" y="-7.8" font-family="Helvetica,sans-Serif" font-size="14.00">class = Success</text>
</g>
<!-- 4&#45;&gt;6 -->
<g id="edge6" class="edge"><title>4&#45;&gt;6</title>
<path fill="none" stroke="black" d="M166.555,-103.726C172.534,-94.879 178.865,-85.51 184.866,-76.6303"/>
<polygon fill="black" stroke="black" points="187.797,-78.5448 190.496,-68.2996 181.997,-74.6253 187.797,-78.5448"/>
</g>
<!-- 11 -->
<g id="node12" class="node"><title>11</title>
<path fill="#f3c4a3" stroke="black" d="M611.5,-425C611.5,-425 528.5,-425 528.5,-425 522.5,-425 516.5,-419 516.5,-413 516.5,-413 516.5,-354 516.5,-354 516.5,-348 522.5,-342 528.5,-342 528.5,-342 611.5,-342 611.5,-342 617.5,-342 623.5,-348 623.5,-354 623.5,-354 623.5,-413 623.5,-413 623.5,-419 617.5,-425 611.5,-425"/>
<text text-anchor="start" x="530.5" y="-409.8" font-family="Helvetica,sans-Serif" font-size="14.00">x0_FR ≤ 0.5</text>
<text text-anchor="start" x="532.5" y="-394.8" font-family="Helvetica,sans-Serif" font-size="14.00">gini = 0.454</text>
<text text-anchor="start" x="526.5" y="-379.8" font-family="Helvetica,sans-Serif" font-size="14.00">samples = 23</text>
<text text-anchor="start" x="525.5" y="-364.8" font-family="Helvetica,sans-Serif" font-size="14.00">value = [15, 8]</text>
<text text-anchor="start" x="524.5" y="-349.8" font-family="Helvetica,sans-Serif" font-size="14.00">class = Reject</text>
</g>
<!-- 10&#45;&gt;11 -->
<g id="edge11" class="edge"><title>10&#45;&gt;11</title>
<path fill="none" stroke="black" d="M571.306,-460.907C571.163,-452.558 571.011,-443.671 570.864,-435.02"/>
<polygon fill="black" stroke="black" points="574.363,-434.959 570.693,-425.021 567.364,-435.079 574.363,-434.959"/>
</g>
<!-- 14 -->
<g id="node15" class="node"><title>14</title>
<path fill="#399de5" stroke="black" d="M750.5,-417.5C750.5,-417.5 653.5,-417.5 653.5,-417.5 647.5,-417.5 641.5,-411.5 641.5,-405.5 641.5,-405.5 641.5,-361.5 641.5,-361.5 641.5,-355.5 647.5,-349.5 653.5,-349.5 653.5,-349.5 750.5,-349.5 750.5,-349.5 756.5,-349.5 762.5,-355.5 762.5,-361.5 762.5,-361.5 762.5,-405.5 762.5,-405.5 762.5,-411.5 756.5,-417.5 750.5,-417.5"/>
<text text-anchor="start" x="673" y="-402.3" font-family="Helvetica,sans-Serif" font-size="14.00">gini = 0.0</text>
<text text-anchor="start" x="662.5" y="-387.3" font-family="Helvetica,sans-Serif" font-size="14.00">samples = 1</text>
<text text-anchor="start" x="661.5" y="-372.3" font-family="Helvetica,sans-Serif" font-size="14.00">value = [0, 1]</text>
<text text-anchor="start" x="649.5" y="-357.3" font-family="Helvetica,sans-Serif" font-size="14.00">class = Success</text>
</g>
<!-- 10&#45;&gt;14 -->
<g id="edge14" class="edge"><title>10&#45;&gt;14</title>
<path fill="none" stroke="black" d="M617.103,-460.907C630.222,-449.101 644.537,-436.217 657.612,-424.45"/>
<polygon fill="black" stroke="black" points="660.056,-426.958 665.148,-417.667 655.373,-421.755 660.056,-426.958"/>
</g>
<!-- 12 -->
<g id="node13" class="node"><title>12</title>
<path fill="#e58139" stroke="black" d="M579.5,-298.5C579.5,-298.5 496.5,-298.5 496.5,-298.5 490.5,-298.5 484.5,-292.5 484.5,-286.5 484.5,-286.5 484.5,-242.5 484.5,-242.5 484.5,-236.5 490.5,-230.5 496.5,-230.5 496.5,-230.5 579.5,-230.5 579.5,-230.5 585.5,-230.5 591.5,-236.5 591.5,-242.5 591.5,-242.5 591.5,-286.5 591.5,-286.5 591.5,-292.5 585.5,-298.5 579.5,-298.5"/>
<text text-anchor="start" x="509" y="-283.3" font-family="Helvetica,sans-Serif" font-size="14.00">gini = 0.0</text>
<text text-anchor="start" x="498.5" y="-268.3" font-family="Helvetica,sans-Serif" font-size="14.00">samples = 1</text>
<text text-anchor="start" x="497.5" y="-253.3" font-family="Helvetica,sans-Serif" font-size="14.00">value = [1, 0]</text>
<text text-anchor="start" x="492.5" y="-238.3" font-family="Helvetica,sans-Serif" font-size="14.00">class = Reject</text>
</g>
<!-- 11&#45;&gt;12 -->
<g id="edge12" class="edge"><title>11&#45;&gt;12</title>
<path fill="none" stroke="black" d="M558.898,-341.907C555.94,-331.094 552.735,-319.376 549.745,-308.441"/>
<polygon fill="black" stroke="black" points="553.086,-307.389 547.071,-298.667 546.334,-309.236 553.086,-307.389"/>
</g>
<!-- 13 -->
<g id="node14" class="node"><title>13</title>
<path fill="#f4c9aa" stroke="black" d="M704.5,-298.5C704.5,-298.5 621.5,-298.5 621.5,-298.5 615.5,-298.5 609.5,-292.5 609.5,-286.5 609.5,-286.5 609.5,-242.5 609.5,-242.5 609.5,-236.5 615.5,-230.5 621.5,-230.5 621.5,-230.5 704.5,-230.5 704.5,-230.5 710.5,-230.5 716.5,-236.5 716.5,-242.5 716.5,-242.5 716.5,-286.5 716.5,-286.5 716.5,-292.5 710.5,-298.5 704.5,-298.5"/>
<text text-anchor="start" x="625.5" y="-283.3" font-family="Helvetica,sans-Serif" font-size="14.00">gini = 0.463</text>
<text text-anchor="start" x="619.5" y="-268.3" font-family="Helvetica,sans-Serif" font-size="14.00">samples = 22</text>
<text text-anchor="start" x="618.5" y="-253.3" font-family="Helvetica,sans-Serif" font-size="14.00">value = [14, 8]</text>
<text text-anchor="start" x="617.5" y="-238.3" font-family="Helvetica,sans-Serif" font-size="14.00">class = Reject</text>
</g>
<!-- 11&#45;&gt;13 -->
<g id="edge13" class="edge"><title>11&#45;&gt;13</title>
<path fill="none" stroke="black" d="M602.266,-341.907C611.3,-330.542 621.127,-318.178 630.193,-306.774"/>
<polygon fill="black" stroke="black" points="633.154,-308.673 636.637,-298.667 627.674,-304.317 633.154,-308.673"/>
</g>
</g>
</svg>
